<mxfile host="app.diagrams.net" modified="2024-05-31T10:20:09.211Z" agent="Mozilla/5.0 (X11; Linux x86_64) AppleWebKit/537.36 (KHTML, like Gecko) Chrome/124.0.0.0 Safari/537.36" etag="SHEljsj6UsQl-v1osOAv" version="24.4.11" type="github">
  <diagram name="Страница — 1" id="8Fd4DE_ThHMxjzl9vu1d">
    <mxGraphModel dx="1298" dy="887" grid="0" gridSize="10" guides="1" tooltips="1" connect="1" arrows="1" fold="1" page="1" pageScale="1" pageWidth="3300" pageHeight="4681" math="0" shadow="0">
      <root>
        <mxCell id="0" />
        <mxCell id="1" parent="0" />
        <mxCell id="zn5Uk6ec105c7Yuh8XmU-1" value="Library.cs" style="swimlane;fontStyle=1;align=center;verticalAlign=top;childLayout=stackLayout;horizontal=1;startSize=26;horizontalStack=0;resizeParent=1;resizeParentMax=0;resizeLast=0;collapsible=1;marginBottom=0;whiteSpace=wrap;html=1;" parent="1" vertex="1">
          <mxGeometry x="706" y="449" width="366" height="335" as="geometry" />
        </mxCell>
        <mxCell id="zn5Uk6ec105c7Yuh8XmU-2" value="- _users: List&amp;lt;User&amp;gt;&lt;div&gt;- _documents: List&amp;lt;Document&amp;gt;&lt;/div&gt;" style="text;strokeColor=none;fillColor=none;align=left;verticalAlign=top;spacingLeft=4;spacingRight=4;overflow=hidden;rotatable=0;points=[[0,0.5],[1,0.5]];portConstraint=eastwest;whiteSpace=wrap;html=1;" parent="zn5Uk6ec105c7Yuh8XmU-1" vertex="1">
          <mxGeometry y="26" width="366" height="43" as="geometry" />
        </mxCell>
        <mxCell id="zn5Uk6ec105c7Yuh8XmU-3" value="" style="line;strokeWidth=1;fillColor=none;align=left;verticalAlign=middle;spacingTop=-1;spacingLeft=3;spacingRight=3;rotatable=0;labelPosition=right;points=[];portConstraint=eastwest;strokeColor=inherit;" parent="zn5Uk6ec105c7Yuh8XmU-1" vertex="1">
          <mxGeometry y="69" width="366" height="8" as="geometry" />
        </mxCell>
        <mxCell id="zn5Uk6ec105c7Yuh8XmU-4" value="+ AddUser(string firstName, string lastName, int group, int id): void&lt;div&gt;+ RemoveUser(int id): void&lt;/div&gt;&lt;div&gt;+ ChangeUserInfo(int id): void&lt;/div&gt;&lt;div&gt;+ ViewUserInfo(int id): void&lt;/div&gt;&lt;div&gt;+ DisplayAllUsers(): void&lt;/div&gt;&lt;div&gt;- FindUserById(int id): User&lt;/div&gt;&lt;div&gt;+ ManageUserLending(): void&lt;/div&gt;&lt;div&gt;+ UserKeywordSearch(string keyword): void&lt;/div&gt;&lt;div&gt;+ DocKeywordSearch(string keyword): void&lt;/div&gt;&lt;div&gt;+ AddDocument(string name, string author): void&lt;/div&gt;&lt;div&gt;+ RemoveDocument(string docName): void&lt;/div&gt;&lt;div&gt;+ ChangeDocInfo(string name): void&lt;/div&gt;&lt;div&gt;+ ViewDocInfo(string name): void&lt;/div&gt;&lt;div&gt;-&amp;nbsp;FindDocumentByName(string name): Document&lt;/div&gt;&lt;div&gt;-&amp;nbsp;SortUsers(string option): void&lt;/div&gt;&lt;div&gt;+ DisplayAllDocs(): void&lt;/div&gt;&lt;div&gt;-&amp;nbsp;SortDocs(string option): void&amp;nbsp;&lt;/div&gt;" style="text;strokeColor=none;fillColor=none;align=left;verticalAlign=top;spacingLeft=4;spacingRight=4;overflow=hidden;rotatable=0;points=[[0,0.5],[1,0.5]];portConstraint=eastwest;whiteSpace=wrap;html=1;" parent="zn5Uk6ec105c7Yuh8XmU-1" vertex="1">
          <mxGeometry y="77" width="366" height="258" as="geometry" />
        </mxCell>
        <mxCell id="zn5Uk6ec105c7Yuh8XmU-9" value="&lt;b&gt;MainInteface.cs&lt;/b&gt;" style="swimlane;fontStyle=1;align=center;verticalAlign=top;childLayout=stackLayout;horizontal=1;startSize=26;horizontalStack=0;resizeParent=1;resizeParentMax=0;resizeLast=0;collapsible=1;marginBottom=0;whiteSpace=wrap;html=1;" parent="1" vertex="1">
          <mxGeometry x="769" y="224" width="240" height="144" as="geometry" />
        </mxCell>
        <mxCell id="zn5Uk6ec105c7Yuh8XmU-10" value="&lt;div&gt;-Library: Library&lt;/div&gt;" style="text;strokeColor=none;fillColor=none;align=left;verticalAlign=top;spacingLeft=4;spacingRight=4;overflow=hidden;rotatable=0;points=[[0,0.5],[1,0.5]];portConstraint=eastwest;whiteSpace=wrap;html=1;" parent="zn5Uk6ec105c7Yuh8XmU-9" vertex="1">
          <mxGeometry y="26" width="240" height="26" as="geometry" />
        </mxCell>
        <mxCell id="zn5Uk6ec105c7Yuh8XmU-11" value="" style="line;strokeWidth=1;fillColor=none;align=left;verticalAlign=middle;spacingTop=-1;spacingLeft=3;spacingRight=3;rotatable=0;labelPosition=right;points=[];portConstraint=eastwest;strokeColor=inherit;" parent="zn5Uk6ec105c7Yuh8XmU-9" vertex="1">
          <mxGeometry y="52" width="240" height="8" as="geometry" />
        </mxCell>
        <mxCell id="zn5Uk6ec105c7Yuh8XmU-12" value="-&amp;nbsp;ExecuteUserOption(string option): void&lt;div&gt;- ExecuteDocOption(string option): void&lt;br&gt;&lt;/div&gt;&lt;div&gt;-&amp;nbsp;DisplayOptions(): viod&lt;/div&gt;&lt;div&gt;-&amp;nbsp;DisplayUserOptions(): void&lt;/div&gt;&lt;div&gt;-&amp;nbsp;DisplayDocOptions(): void&lt;/div&gt;" style="text;strokeColor=none;fillColor=none;align=left;verticalAlign=top;spacingLeft=4;spacingRight=4;overflow=hidden;rotatable=0;points=[[0,0.5],[1,0.5]];portConstraint=eastwest;whiteSpace=wrap;html=1;" parent="zn5Uk6ec105c7Yuh8XmU-9" vertex="1">
          <mxGeometry y="60" width="240" height="84" as="geometry" />
        </mxCell>
        <mxCell id="zn5Uk6ec105c7Yuh8XmU-14" value="Client.cs" style="swimlane;fontStyle=1;align=center;verticalAlign=top;childLayout=stackLayout;horizontal=1;startSize=26;horizontalStack=0;resizeParent=1;resizeParentMax=0;resizeLast=0;collapsible=1;marginBottom=0;whiteSpace=wrap;html=1;" parent="1" vertex="1">
          <mxGeometry x="697" y="939" width="384" height="161" as="geometry" />
        </mxCell>
        <mxCell id="zn5Uk6ec105c7Yuh8XmU-15" value="&lt;div&gt;&lt;span style=&quot;background-color: initial;&quot;&gt;+&amp;nbsp;Group: int&lt;/span&gt;&lt;br&gt;&lt;/div&gt;&lt;div&gt;&lt;span style=&quot;background-color: initial;&quot;&gt;+ DocumentsLanded: List&amp;lt;Document&amp;gt;&lt;/span&gt;&lt;br&gt;&lt;/div&gt;&lt;div&gt;&lt;span style=&quot;background-color: initial;&quot;&gt;- _option: string&lt;/span&gt;&lt;/div&gt;" style="text;strokeColor=none;fillColor=none;align=left;verticalAlign=top;spacingLeft=4;spacingRight=4;overflow=hidden;rotatable=0;points=[[0,0.5],[1,0.5]];portConstraint=eastwest;whiteSpace=wrap;html=1;" parent="zn5Uk6ec105c7Yuh8XmU-14" vertex="1">
          <mxGeometry y="26" width="384" height="57" as="geometry" />
        </mxCell>
        <mxCell id="zn5Uk6ec105c7Yuh8XmU-16" value="" style="line;strokeWidth=1;fillColor=none;align=left;verticalAlign=middle;spacingTop=-1;spacingLeft=3;spacingRight=3;rotatable=0;labelPosition=right;points=[];portConstraint=eastwest;strokeColor=inherit;" parent="zn5Uk6ec105c7Yuh8XmU-14" vertex="1">
          <mxGeometry y="83" width="384" height="8" as="geometry" />
        </mxCell>
        <mxCell id="zn5Uk6ec105c7Yuh8XmU-17" value="+ LendOutDocument(Document document): void&lt;div&gt;+&amp;nbsp;ReturnDocument(Document document): void&lt;/div&gt;&lt;div&gt;+RewriteInfo(string firstName, string lastName, int group, int id): void&lt;/div&gt;&lt;div&gt;+&amp;nbsp;DisplayMenu(Library library): void&lt;/div&gt;" style="text;strokeColor=none;fillColor=none;align=left;verticalAlign=top;spacingLeft=4;spacingRight=4;overflow=hidden;rotatable=0;points=[[0,0.5],[1,0.5]];portConstraint=eastwest;whiteSpace=wrap;html=1;" parent="zn5Uk6ec105c7Yuh8XmU-14" vertex="1">
          <mxGeometry y="91" width="384" height="70" as="geometry" />
        </mxCell>
        <mxCell id="zn5Uk6ec105c7Yuh8XmU-22" value="Document.cs" style="swimlane;fontStyle=1;align=center;verticalAlign=top;childLayout=stackLayout;horizontal=1;startSize=26;horizontalStack=0;resizeParent=1;resizeParentMax=0;resizeLast=0;collapsible=1;marginBottom=0;whiteSpace=wrap;html=1;" parent="1" vertex="1">
          <mxGeometry x="1155" y="819" width="255" height="125" as="geometry" />
        </mxCell>
        <mxCell id="zn5Uk6ec105c7Yuh8XmU-23" value="+ Name: string&lt;div&gt;+ Author: string&lt;/div&gt;&lt;div&gt;+ Status: string&lt;/div&gt;&lt;div&gt;+ OwnerId: int&lt;/div&gt;" style="text;strokeColor=none;fillColor=none;align=left;verticalAlign=top;spacingLeft=4;spacingRight=4;overflow=hidden;rotatable=0;points=[[0,0.5],[1,0.5]];portConstraint=eastwest;whiteSpace=wrap;html=1;" parent="zn5Uk6ec105c7Yuh8XmU-22" vertex="1">
          <mxGeometry y="26" width="255" height="65" as="geometry" />
        </mxCell>
        <mxCell id="zn5Uk6ec105c7Yuh8XmU-24" value="" style="line;strokeWidth=1;fillColor=none;align=left;verticalAlign=middle;spacingTop=-1;spacingLeft=3;spacingRight=3;rotatable=0;labelPosition=right;points=[];portConstraint=eastwest;strokeColor=inherit;" parent="zn5Uk6ec105c7Yuh8XmU-22" vertex="1">
          <mxGeometry y="91" width="255" height="8" as="geometry" />
        </mxCell>
        <mxCell id="zn5Uk6ec105c7Yuh8XmU-25" value="+ RewriteInfo(string name, string author): void" style="text;strokeColor=none;fillColor=none;align=left;verticalAlign=top;spacingLeft=4;spacingRight=4;overflow=hidden;rotatable=0;points=[[0,0.5],[1,0.5]];portConstraint=eastwest;whiteSpace=wrap;html=1;" parent="zn5Uk6ec105c7Yuh8XmU-22" vertex="1">
          <mxGeometry y="99" width="255" height="26" as="geometry" />
        </mxCell>
        <mxCell id="zn5Uk6ec105c7Yuh8XmU-26" value="" style="endArrow=diamondThin;endFill=0;endSize=24;html=1;rounded=0;" parent="1" source="zn5Uk6ec105c7Yuh8XmU-22" target="zn5Uk6ec105c7Yuh8XmU-1" edge="1">
          <mxGeometry width="160" relative="1" as="geometry">
            <mxPoint x="468" y="893" as="sourcePoint" />
            <mxPoint x="628" y="893" as="targetPoint" />
          </mxGeometry>
        </mxCell>
        <mxCell id="zn5Uk6ec105c7Yuh8XmU-27" value="" style="endArrow=diamondThin;endFill=0;endSize=24;html=1;rounded=0;" parent="1" source="zn5Uk6ec105c7Yuh8XmU-14" target="zn5Uk6ec105c7Yuh8XmU-1" edge="1">
          <mxGeometry width="160" relative="1" as="geometry">
            <mxPoint x="518" y="833" as="sourcePoint" />
            <mxPoint x="678" y="833" as="targetPoint" />
          </mxGeometry>
        </mxCell>
        <mxCell id="zn5Uk6ec105c7Yuh8XmU-28" value="" style="endArrow=diamondThin;endFill=0;endSize=24;html=1;rounded=0;" parent="1" source="zn5Uk6ec105c7Yuh8XmU-22" target="zn5Uk6ec105c7Yuh8XmU-14" edge="1">
          <mxGeometry width="160" relative="1" as="geometry">
            <mxPoint x="519" y="915" as="sourcePoint" />
            <mxPoint x="679" y="915" as="targetPoint" />
          </mxGeometry>
        </mxCell>
        <mxCell id="7H1M7mPJtgp3-fLMWwjp-1" value="Employee.cs" style="swimlane;fontStyle=1;align=center;verticalAlign=top;childLayout=stackLayout;horizontal=1;startSize=26;horizontalStack=0;resizeParent=1;resizeParentMax=0;resizeLast=0;collapsible=1;marginBottom=0;whiteSpace=wrap;html=1;" parent="1" vertex="1">
          <mxGeometry x="1346" y="541" width="244" height="151" as="geometry" />
        </mxCell>
        <mxCell id="7H1M7mPJtgp3-fLMWwjp-2" value="&lt;div&gt;- _option: string&lt;/div&gt;" style="text;strokeColor=none;fillColor=none;align=left;verticalAlign=top;spacingLeft=4;spacingRight=4;overflow=hidden;rotatable=0;points=[[0,0.5],[1,0.5]];portConstraint=eastwest;whiteSpace=wrap;html=1;" parent="7H1M7mPJtgp3-fLMWwjp-1" vertex="1">
          <mxGeometry y="26" width="244" height="29" as="geometry" />
        </mxCell>
        <mxCell id="7H1M7mPJtgp3-fLMWwjp-3" value="" style="line;strokeWidth=1;fillColor=none;align=left;verticalAlign=middle;spacingTop=-1;spacingLeft=3;spacingRight=3;rotatable=0;labelPosition=right;points=[];portConstraint=eastwest;strokeColor=inherit;" parent="7H1M7mPJtgp3-fLMWwjp-1" vertex="1">
          <mxGeometry y="55" width="244" height="8" as="geometry" />
        </mxCell>
        <mxCell id="7H1M7mPJtgp3-fLMWwjp-4" value="-&amp;nbsp;ExecuteUserOption(string option): void&lt;div&gt;- ExecuteDocOption(string option): void&lt;br&gt;&lt;/div&gt;&lt;div&gt;-&amp;nbsp;DisplayOptions(): viod&lt;/div&gt;&lt;div&gt;-&amp;nbsp;DisplayUserOptions(): void&lt;/div&gt;&lt;div&gt;-&amp;nbsp;DisplayDocOptions(): void&lt;/div&gt;" style="text;strokeColor=none;fillColor=none;align=left;verticalAlign=top;spacingLeft=4;spacingRight=4;overflow=hidden;rotatable=0;points=[[0,0.5],[1,0.5]];portConstraint=eastwest;whiteSpace=wrap;html=1;" parent="7H1M7mPJtgp3-fLMWwjp-1" vertex="1">
          <mxGeometry y="63" width="244" height="88" as="geometry" />
        </mxCell>
        <mxCell id="7H1M7mPJtgp3-fLMWwjp-5" value="User.cs" style="swimlane;fontStyle=1;align=center;verticalAlign=top;childLayout=stackLayout;horizontal=1;startSize=26;horizontalStack=0;resizeParent=1;resizeParentMax=0;resizeLast=0;collapsible=1;marginBottom=0;whiteSpace=wrap;html=1;" parent="1" vertex="1">
          <mxGeometry x="1399" y="980.5" width="138" height="78" as="geometry" />
        </mxCell>
        <mxCell id="7H1M7mPJtgp3-fLMWwjp-6" value="+ Firstname: string&lt;div&gt;+&amp;nbsp;Lastname: string&lt;/div&gt;&lt;div&gt;&lt;span style=&quot;background-color: initial;&quot;&gt;+ Id: int&lt;/span&gt;&lt;/div&gt;" style="text;strokeColor=none;fillColor=none;align=left;verticalAlign=top;spacingLeft=4;spacingRight=4;overflow=hidden;rotatable=0;points=[[0,0.5],[1,0.5]];portConstraint=eastwest;whiteSpace=wrap;html=1;" parent="7H1M7mPJtgp3-fLMWwjp-5" vertex="1">
          <mxGeometry y="26" width="138" height="52" as="geometry" />
        </mxCell>
        <mxCell id="7H1M7mPJtgp3-fLMWwjp-11" value="" style="endArrow=block;dashed=1;endFill=0;endSize=12;html=1;rounded=0;" parent="1" source="zn5Uk6ec105c7Yuh8XmU-14" target="7H1M7mPJtgp3-fLMWwjp-5" edge="1">
          <mxGeometry width="160" relative="1" as="geometry">
            <mxPoint x="396" y="1066" as="sourcePoint" />
            <mxPoint x="556" y="1066" as="targetPoint" />
          </mxGeometry>
        </mxCell>
        <mxCell id="7H1M7mPJtgp3-fLMWwjp-12" value="" style="endArrow=block;dashed=1;endFill=0;endSize=12;html=1;rounded=0;" parent="1" source="7H1M7mPJtgp3-fLMWwjp-1" target="7H1M7mPJtgp3-fLMWwjp-5" edge="1">
          <mxGeometry width="160" relative="1" as="geometry">
            <mxPoint x="455" y="837" as="sourcePoint" />
            <mxPoint x="615" y="837" as="targetPoint" />
          </mxGeometry>
        </mxCell>
        <mxCell id="7H1M7mPJtgp3-fLMWwjp-13" value="Request.cs" style="swimlane;fontStyle=1;align=center;verticalAlign=top;childLayout=stackLayout;horizontal=1;startSize=26;horizontalStack=0;resizeParent=1;resizeParentMax=0;resizeLast=0;collapsible=1;marginBottom=0;whiteSpace=wrap;html=1;" parent="1" vertex="1">
          <mxGeometry x="453" y="858" width="143" height="67" as="geometry" />
        </mxCell>
        <mxCell id="7H1M7mPJtgp3-fLMWwjp-14" value="+ Response: string&lt;div&gt;+&amp;nbsp;DocName: string&lt;/div&gt;&lt;div&gt;&lt;br&gt;&lt;/div&gt;" style="text;strokeColor=none;fillColor=none;align=left;verticalAlign=top;spacingLeft=4;spacingRight=4;overflow=hidden;rotatable=0;points=[[0,0.5],[1,0.5]];portConstraint=eastwest;whiteSpace=wrap;html=1;" parent="7H1M7mPJtgp3-fLMWwjp-13" vertex="1">
          <mxGeometry y="26" width="143" height="41" as="geometry" />
        </mxCell>
        <mxCell id="7H1M7mPJtgp3-fLMWwjp-17" value="" style="endArrow=open;endSize=12;dashed=1;html=1;rounded=0;" parent="1" source="zn5Uk6ec105c7Yuh8XmU-9" target="zn5Uk6ec105c7Yuh8XmU-1" edge="1">
          <mxGeometry width="160" relative="1" as="geometry">
            <mxPoint x="543" y="304" as="sourcePoint" />
            <mxPoint x="703" y="304" as="targetPoint" />
          </mxGeometry>
        </mxCell>
        <mxCell id="7H1M7mPJtgp3-fLMWwjp-24" value="" style="endArrow=diamondThin;endFill=0;endSize=24;html=1;rounded=0;" parent="1" source="7H1M7mPJtgp3-fLMWwjp-1" target="zn5Uk6ec105c7Yuh8XmU-1" edge="1">
          <mxGeometry width="160" relative="1" as="geometry">
            <mxPoint x="444" y="461" as="sourcePoint" />
            <mxPoint x="604" y="461" as="targetPoint" />
          </mxGeometry>
        </mxCell>
        <mxCell id="7H1M7mPJtgp3-fLMWwjp-27" value="" style="endArrow=diamondThin;endFill=1;endSize=24;html=1;rounded=0;" parent="1" source="7H1M7mPJtgp3-fLMWwjp-13" target="zn5Uk6ec105c7Yuh8XmU-1" edge="1">
          <mxGeometry width="160" relative="1" as="geometry">
            <mxPoint x="445" y="981" as="sourcePoint" />
            <mxPoint x="605" y="981" as="targetPoint" />
          </mxGeometry>
        </mxCell>
        <mxCell id="7H1M7mPJtgp3-fLMWwjp-29" value="" style="endArrow=diamondThin;endFill=1;endSize=24;html=1;rounded=0;" parent="1" source="7H1M7mPJtgp3-fLMWwjp-13" target="zn5Uk6ec105c7Yuh8XmU-14" edge="1">
          <mxGeometry width="160" relative="1" as="geometry">
            <mxPoint x="455" y="1031" as="sourcePoint" />
            <mxPoint x="615" y="1037" as="targetPoint" />
          </mxGeometry>
        </mxCell>
        <mxCell id="z3FIIaF0nxMbEkqMuMmM-1" value="0...*" style="text;html=1;align=center;verticalAlign=middle;resizable=0;points=[];autosize=1;strokeColor=none;fillColor=none;" parent="1" vertex="1">
          <mxGeometry x="542" y="832" width="39" height="26" as="geometry" />
        </mxCell>
        <mxCell id="z3FIIaF0nxMbEkqMuMmM-2" value="1" style="text;html=1;align=center;verticalAlign=middle;resizable=0;points=[];autosize=1;strokeColor=none;fillColor=none;" parent="1" vertex="1">
          <mxGeometry x="681" y="732" width="25" height="26" as="geometry" />
        </mxCell>
        <mxCell id="z3FIIaF0nxMbEkqMuMmM-3" value="1" style="text;html=1;align=center;verticalAlign=middle;resizable=0;points=[];autosize=1;strokeColor=none;fillColor=none;rotation=0;" parent="1" vertex="1">
          <mxGeometry x="672" y="913" width="25" height="26" as="geometry" />
        </mxCell>
        <mxCell id="z3FIIaF0nxMbEkqMuMmM-4" value="0...*" style="text;html=1;align=center;verticalAlign=middle;resizable=0;points=[];autosize=1;strokeColor=none;fillColor=none;" parent="1" vertex="1">
          <mxGeometry x="596" y="895" width="39" height="26" as="geometry" />
        </mxCell>
        <mxCell id="z3FIIaF0nxMbEkqMuMmM-5" value="0...*" style="text;html=1;align=center;verticalAlign=middle;resizable=0;points=[];autosize=1;strokeColor=none;fillColor=none;" parent="1" vertex="1">
          <mxGeometry x="848" y="912" width="39" height="26" as="geometry" />
        </mxCell>
        <mxCell id="z3FIIaF0nxMbEkqMuMmM-6" value="1...*" style="text;html=1;align=center;verticalAlign=middle;resizable=0;points=[];autosize=1;strokeColor=none;fillColor=none;" parent="1" vertex="1">
          <mxGeometry x="1307" y="590" width="39" height="26" as="geometry" />
        </mxCell>
        <mxCell id="z3FIIaF0nxMbEkqMuMmM-7" value="1" style="text;html=1;align=center;verticalAlign=middle;resizable=0;points=[];autosize=1;strokeColor=none;fillColor=none;" parent="1" vertex="1">
          <mxGeometry x="1072" y="580" width="25" height="26" as="geometry" />
        </mxCell>
        <mxCell id="z3FIIaF0nxMbEkqMuMmM-8" value="1...*" style="text;html=1;align=center;verticalAlign=middle;resizable=0;points=[];autosize=1;strokeColor=none;fillColor=none;" parent="1" vertex="1">
          <mxGeometry x="840" y="788" width="39" height="26" as="geometry" />
        </mxCell>
        <mxCell id="z3FIIaF0nxMbEkqMuMmM-9" value="1" style="text;html=1;align=center;verticalAlign=middle;resizable=0;points=[];autosize=1;strokeColor=none;fillColor=none;" parent="1" vertex="1">
          <mxGeometry x="1076" y="706" width="25" height="26" as="geometry" />
        </mxCell>
        <mxCell id="z3FIIaF0nxMbEkqMuMmM-10" value="0...*" style="text;html=1;align=center;verticalAlign=middle;resizable=0;points=[];autosize=1;strokeColor=none;fillColor=none;" parent="1" vertex="1">
          <mxGeometry x="1181" y="790" width="39" height="26" as="geometry" />
        </mxCell>
        <mxCell id="z3FIIaF0nxMbEkqMuMmM-11" value="...5" style="text;html=1;align=center;verticalAlign=middle;resizable=0;points=[];autosize=1;strokeColor=none;fillColor=none;" parent="1" vertex="1">
          <mxGeometry x="1125" y="905" width="35" height="26" as="geometry" />
        </mxCell>
        <mxCell id="z3FIIaF0nxMbEkqMuMmM-12" value="1" style="text;html=1;align=center;verticalAlign=middle;resizable=0;points=[];autosize=1;strokeColor=none;fillColor=none;" parent="1" vertex="1">
          <mxGeometry x="1079" y="913" width="25" height="26" as="geometry" />
        </mxCell>
      </root>
    </mxGraphModel>
  </diagram>
</mxfile>
